<svg width="2000px" height="842px"
 viewBox="0.00 0.00 1984.00 835.00" xmlns="http://www.w3.org/2000/svg" xmlns:xlink="http://www.w3.org/1999/xlink">
<g id="graph0" class="graph" transform="scale(1.0 1.0) rotate(0) translate(4 830.71)">
<title>ContextMapGraph</title>
<polygon fill="white" stroke="none" points="-4,4 -4,-830.71 1979.61,-830.71 1979.61,4 -4,4"/>
<!-- AcreditacionCumplimiento -->
<g id="node1" class="node">
<title>AcreditacionCumplimiento</title>
<polygon fill="none" stroke="black" stroke-width="2" points="254.5,-510.54 247.66,-508.17 241.28,-505.74 235.38,-503.27 229.99,-500.77 225.14,-498.23 220.84,-495.68 217.11,-493.13 213.98,-490.57 211.45,-488.03 209.54,-485.51 208.26,-483.01 207.62,-480.55 207.61,-478.13 208.25,-475.76 209.53,-473.45 211.44,-471.2 213.98,-469.02 217.13,-466.91 220.89,-464.88 225.23,-462.92 230.15,-461.06 235.61,-459.28 241.6,-457.59 248.1,-456 255.06,-454.5 262.48,-453.09 270.31,-451.78 278.52,-450.57 287.08,-449.45 295.96,-448.43 305.12,-447.51 314.52,-446.69 324.14,-445.96 333.92,-445.33 343.85,-444.78 353.88,-444.34 363.97,-443.98 374.1,-443.72 384.23,-443.54 394.32,-443.45 404.34,-443.45 414.26,-443.54 424.06,-443.72 433.7,-443.97 443.16,-444.31 452.41,-444.74 461.44,-445.25 470.21,-445.84 478.71,-446.51 486.92,-447.27 494.83,-448.11 502.42,-449.02 509.67,-450.02 516.58,-451.1 523.14,-452.27 529.33,-453.51 535.16,-454.83 540.61,-456.23 545.69,-457.71 550.38,-459.27 554.69,-460.9 558.61,-462.61 562.14,-464.39 565.29,-466.25 568.05,-468.17 570.43,-470.16 572.43,-472.21 574.04,-474.32 575.27,-476.48 576.13,-478.7 576.61,-480.96 576.71,-483.27 576.45,-485.61 575.81,-487.97 574.8,-490.37 573.43,-492.77 571.69,-495.19 569.59,-497.6 567.13,-500.01 564.3,-502.41 561.12,-504.78 557.58,-507.12 553.68,-509.42 549.43,-511.67 544.82,-513.86 539.87,-515.98 534.57,-518.03 528.94,-519.99 522.96,-521.86 516.66,-523.63 510.03,-525.29 503.08,-526.83 495.83,-528.25 488.28,-529.54 480.45,-530.69 472.35,-531.7 463.98,-532.56 455.38,-533.27 446.55,-533.82 437.51,-534.21 428.29,-534.45 418.9,-534.52 409.37,-534.42 399.73,-534.16 390,-533.74 380.21,-533.16 370.39,-532.42 360.56,-531.52 350.77,-530.47 341.03,-529.27 331.4,-527.93 321.89,-526.45 312.54,-524.84 303.39,-523.11 294.47,-521.25 285.81,-519.3 277.45,-517.24 269.43,-515.08 261.77,-512.85 254.5,-510.54"/>
<text xml:space="preserve" text-anchor="middle" x="404.37" y="-480.02" font-family="sans-serif" font-size="16.00">AcreditacionCumplimiento</text>
</g>
<!-- AlianzasIntegracionesB2B2C -->
<g id="node2" class="node">
<title>AlianzasIntegracionesB2B2C</title>
<polygon fill="none" stroke="black" stroke-width="2" points="1453.19,-495.95 1450.38,-498.78 1447.06,-501.56 1443.25,-504.29 1438.97,-506.95 1434.21,-509.53 1429.01,-512.01 1423.37,-514.4 1417.32,-516.68 1410.86,-518.84 1404.02,-520.88 1396.83,-522.78 1389.29,-524.54 1381.43,-526.16 1373.28,-527.63 1364.85,-528.95 1356.17,-530.1 1347.26,-531.1 1338.15,-531.94 1328.85,-532.62 1319.4,-533.13 1309.81,-533.49 1300.12,-533.68 1290.34,-533.72 1280.51,-533.61 1270.64,-533.35 1260.76,-532.94 1250.9,-532.39 1241.08,-531.71 1231.32,-530.9 1221.66,-529.97 1212.1,-528.92 1202.69,-527.76 1193.43,-526.5 1184.36,-525.14 1175.5,-523.7 1166.86,-522.17 1158.48,-520.58 1150.36,-518.91 1142.54,-517.19 1135.03,-515.41 1127.86,-513.59 1121.03,-511.72 1114.58,-509.83 1108.51,-507.9 1102.85,-505.95 1097.61,-503.98 1092.8,-502 1088.44,-500.01 1084.54,-498.01 1081.11,-496.02 1078.17,-494.02 1075.72,-492.02 1073.77,-490.04 1072.33,-488.06 1071.41,-486.09 1071.01,-484.13 1071.13,-482.18 1071.78,-480.25 1072.96,-478.34 1074.66,-476.45 1076.89,-474.57 1079.63,-472.71 1082.89,-470.88 1086.66,-469.07 1090.93,-467.28 1095.69,-465.51 1100.92,-463.78 1106.63,-462.07 1112.78,-460.4 1119.37,-458.76 1126.39,-457.16 1133.8,-455.6 1141.59,-454.08 1149.74,-452.61 1158.24,-451.2 1167.04,-449.83 1176.14,-448.53 1185.5,-447.3 1195.09,-446.13 1204.9,-445.05 1214.88,-444.04 1225.02,-443.12 1235.28,-442.29 1245.64,-441.56 1256.06,-440.93 1266.5,-440.41 1276.95,-440 1287.37,-439.71 1297.72,-439.55 1307.99,-439.51 1318.12,-439.61 1328.11,-439.84 1337.91,-440.21 1347.5,-440.72 1356.85,-441.37 1365.94,-442.17 1374.72,-443.12 1383.19,-444.21 1391.31,-445.45 1399.06,-446.83 1406.42,-448.35 1413.37,-450.01 1419.89,-451.8 1425.95,-453.73 1431.55,-455.78 1436.67,-457.95 1441.3,-460.23 1445.41,-462.62 1449.01,-465.11 1452.09,-467.68 1454.63,-470.33 1456.63,-473.05 1458.1,-475.83 1459.01,-478.65 1459.39,-481.51 1459.22,-484.4 1458.51,-487.3 1457.26,-490.19 1455.49,-493.08 1453.19,-495.95"/>
<text xml:space="preserve" text-anchor="middle" x="1264.37" y="-480.02" font-family="sans-serif" font-size="16.00">AlianzasIntegracionesB2B2C</text>
</g>
<!-- SiniestrosOperacionB2B2C -->
<g id="node3" class="node">
<title>SiniestrosOperacionB2B2C</title>
<polygon fill="none" stroke="black" stroke-width="2" points="1313.63,-663.55 1305.79,-665.75 1297.62,-667.85 1289.15,-669.85 1280.41,-671.74 1271.44,-673.51 1262.27,-675.14 1252.93,-676.65 1243.45,-678.01 1233.87,-679.22 1224.21,-680.29 1214.51,-681.2 1204.8,-681.94 1195.1,-682.53 1185.44,-682.95 1175.86,-683.21 1166.36,-683.3 1156.99,-683.22 1147.75,-682.98 1138.68,-682.58 1129.79,-682.02 1121.1,-681.31 1112.63,-680.44 1104.39,-679.43 1096.4,-678.27 1088.68,-676.98 1081.22,-675.56 1074.06,-674.02 1067.18,-672.36 1060.61,-670.6 1054.36,-668.74 1048.42,-666.78 1042.81,-664.75 1037.53,-662.64 1032.59,-660.47 1028,-658.25 1023.75,-655.97 1019.85,-653.66 1016.31,-651.32 1013.13,-648.96 1010.31,-646.58 1007.86,-644.2 1005.78,-641.83 1004.08,-639.46 1002.75,-637.11 1001.81,-634.78 1001.25,-632.48 1001.08,-630.21 1001.3,-627.99 1001.92,-625.8 1002.94,-623.67 1004.36,-621.59 1006.19,-619.57 1008.42,-617.6 1011.07,-615.7 1014.12,-613.86 1017.59,-612.09 1021.46,-610.39 1025.75,-608.75 1030.44,-607.19 1035.54,-605.7 1041.04,-604.28 1046.93,-602.94 1053.22,-601.67 1059.88,-600.47 1066.91,-599.35 1074.31,-598.3 1082.05,-597.33 1090.12,-596.44 1098.5,-595.62 1107.18,-594.88 1116.14,-594.22 1125.36,-593.64 1134.81,-593.14 1144.47,-592.72 1154.3,-592.38 1164.29,-592.12 1174.41,-591.95 1184.62,-591.86 1194.88,-591.86 1205.18,-591.96 1215.47,-592.14 1225.72,-592.41 1235.9,-592.78 1245.96,-593.25 1255.87,-593.81 1265.6,-594.47 1275.11,-595.24 1284.37,-596.1 1293.33,-597.07 1301.97,-598.14 1310.24,-599.31 1318.13,-600.58 1325.59,-601.96 1332.61,-603.44 1339.14,-605.03 1345.17,-606.71 1350.67,-608.48 1355.62,-610.36 1360,-612.32 1363.79,-614.37 1366.98,-616.5 1369.55,-618.72 1371.51,-621 1372.83,-623.35 1373.53,-625.77 1373.59,-628.23 1373.02,-630.74 1371.82,-633.29 1370,-635.87 1367.58,-638.48 1364.55,-641.09 1360.95,-643.7 1356.78,-646.31 1352.06,-648.91 1346.82,-651.47 1341.08,-654 1334.86,-656.49 1328.2,-658.91 1321.11,-661.27 1313.63,-663.55"/>
<text xml:space="preserve" text-anchor="middle" x="1176.37" y="-628.58" font-family="sans-serif" font-size="16.00">SiniestrosOperacionB2B2C</text>
</g>
<!-- AlianzasIntegracionesB2B2C&#45;&gt;SiniestrosOperacionB2B2C -->
<g id="edge1" class="edge">
<title>AlianzasIntegracionesB2B2C&#45;&gt;SiniestrosOperacionB2B2C</title>
<path fill="none" stroke="black" stroke-width="2" d="M1194.96,-526.77C1186.99,-534.29 1179.98,-542.88 1175.12,-552.52 1169.15,-564.38 1167.78,-578.52 1168.42,-591.62"/>
<text xml:space="preserve" text-anchor="middle" x="1209.25" y="-555.37" font-family="sans-serif" font-size="12.00">Partnership</text>
</g>
<!-- SiniestrosOperacionB2B2C&#45;&gt;AlianzasIntegracionesB2B2C -->
<g id="edge4" class="edge">
<title>SiniestrosOperacionB2B2C&#45;&gt;AlianzasIntegracionesB2B2C</title>
<path fill="none" stroke="black" stroke-width="2" d="M1224.41,-592.05C1231.55,-584.24 1238.22,-575.69 1243.37,-566.77 1249.28,-556.53 1253.56,-544.61 1256.64,-533.14"/>
<text xml:space="preserve" text-anchor="middle" x="1291.84" y="-555.37" font-family="sans-serif" font-size="12.00">Shared Kernel</text>
</g>
<!-- PagosLiquidaciones -->
<g id="node4" class="node">
<title>PagosLiquidaciones</title>
<polygon fill="none" stroke="black" stroke-width="2" points="939.11,-379.21 930.18,-378.37 921.42,-377.42 912.88,-376.36 904.58,-375.2 896.56,-373.93 888.86,-372.57 881.49,-371.12 874.5,-369.58 867.9,-367.96 861.73,-366.26 856,-364.48 850.73,-362.64 845.95,-360.73 841.66,-358.77 837.87,-356.76 834.61,-354.7 831.86,-352.59 829.64,-350.46 827.95,-348.29 826.78,-346.1 826.14,-343.89 826,-341.66 826.38,-339.43 827.24,-337.19 828.59,-334.96 830.4,-332.73 832.67,-330.52 835.35,-328.33 838.45,-326.16 841.94,-324.02 845.79,-321.92 849.99,-319.85 854.51,-317.83 859.32,-315.85 864.4,-313.93 869.73,-312.07 875.28,-310.27 881.03,-308.53 886.95,-306.87 893.03,-305.28 899.25,-303.77 905.57,-302.34 911.98,-301 918.46,-299.75 925,-298.6 931.58,-297.54 938.17,-296.58 944.78,-295.72 951.38,-294.97 957.96,-294.33 964.51,-293.8 971.03,-293.38 977.5,-293.07 983.92,-292.88 990.28,-292.81 996.58,-292.86 1002.8,-293.02 1008.95,-293.3 1015.02,-293.7 1021.01,-294.22 1026.91,-294.86 1032.72,-295.62 1038.44,-296.49 1044.05,-297.48 1049.57,-298.57 1054.97,-299.78 1060.27,-301.1 1065.44,-302.52 1070.49,-304.04 1075.41,-305.66 1080.18,-307.37 1084.8,-309.17 1089.26,-311.05 1093.55,-313.01 1097.66,-315.05 1101.57,-317.15 1105.27,-319.32 1108.75,-321.54 1111.99,-323.81 1114.98,-326.12 1117.7,-328.47 1120.13,-330.85 1122.26,-333.25 1124.07,-335.66 1125.55,-338.08 1126.69,-340.5 1127.45,-342.91 1127.84,-345.31 1127.84,-347.68 1127.43,-350.02 1126.61,-352.33 1125.36,-354.59 1123.67,-356.8 1121.54,-358.95 1118.96,-361.04 1115.93,-363.06 1112.45,-365 1108.52,-366.85 1104.15,-368.62 1099.32,-370.29 1094.07,-371.86 1088.39,-373.33 1082.3,-374.69 1075.82,-375.94 1068.96,-377.08 1061.74,-378.09 1054.19,-378.99 1046.32,-379.76 1038.18,-380.41 1029.77,-380.93 1021.15,-381.33 1012.33,-381.59 1003.35,-381.73 994.25,-381.74 985.06,-381.63 975.82,-381.39 966.57,-381.03 957.34,-380.54 948.17,-379.93 939.11,-379.21"/>
<text xml:space="preserve" text-anchor="middle" x="982.37" y="-331.42" font-family="sans-serif" font-size="16.00">PagosLiquidaciones</text>
</g>
<!-- SiniestrosOperacionB2B2C&#45;&gt;PagosLiquidaciones -->
<g id="edge2" class="edge">
<title>SiniestrosOperacionB2B2C&#45;&gt;PagosLiquidaciones</title>
<path fill="none" stroke="black" stroke-width="2" d="M1069.36,-598.73C1039.43,-583.81 1010.18,-563.01 992.12,-534.52 963.04,-488.6 966.32,-423.87 972.99,-381.4"/>
<text xml:space="preserve" text-anchor="middle" x="1026.25" y="-481.19" font-family="sans-serif" font-size="12.00">Partnership</text>
</g>
<!-- GestionTrabajos -->
<g id="node5" class="node">
<title>GestionTrabajos</title>
<polygon fill="none" stroke="black" stroke-width="2" points="1719.32,-489.84 1718.65,-492.73 1717.66,-495.59 1716.34,-498.41 1714.69,-501.18 1712.73,-503.89 1710.45,-506.52 1707.87,-509.06 1704.99,-511.51 1701.81,-513.85 1698.35,-516.09 1694.62,-518.2 1690.62,-520.19 1686.37,-522.04 1681.88,-523.76 1677.16,-525.33 1672.23,-526.75 1667.09,-528.02 1661.76,-529.14 1656.26,-530.11 1650.6,-530.92 1644.8,-531.57 1638.87,-532.08 1632.83,-532.43 1626.69,-532.63 1620.48,-532.68 1614.21,-532.59 1607.89,-532.37 1601.55,-532 1595.2,-531.51 1588.85,-530.89 1582.54,-530.16 1576.26,-529.31 1570.05,-528.36 1563.92,-527.3 1557.88,-526.15 1551.95,-524.92 1546.14,-523.6 1540.49,-522.21 1534.99,-520.76 1529.66,-519.24 1524.52,-517.66 1519.58,-516.03 1514.86,-514.36 1510.37,-512.64 1506.12,-510.89 1502.13,-509.11 1498.39,-507.3 1494.93,-505.47 1491.76,-503.62 1488.87,-501.75 1486.29,-499.86 1484.02,-497.96 1482.05,-496.06 1480.41,-494.14 1479.09,-492.22 1478.09,-490.29 1477.43,-488.37 1477.1,-486.43 1477.1,-484.5 1477.43,-482.57 1478.09,-480.64 1479.09,-478.72 1480.41,-476.8 1482.05,-474.88 1484.02,-472.97 1486.29,-471.08 1488.87,-469.19 1491.76,-467.32 1494.93,-465.47 1498.39,-463.63 1502.13,-461.83 1506.12,-460.04 1510.37,-458.29 1514.86,-456.58 1519.58,-454.91 1524.52,-453.28 1529.66,-451.7 1534.99,-450.18 1540.49,-448.72 1546.14,-447.33 1551.95,-446.02 1557.88,-444.78 1563.92,-443.63 1570.05,-442.58 1576.26,-441.63 1582.54,-440.78 1588.85,-440.04 1595.2,-439.43 1601.55,-438.93 1607.89,-438.57 1614.21,-438.34 1620.48,-438.25 1626.69,-438.31 1632.83,-438.51 1638.87,-438.86 1644.8,-439.36 1650.6,-440.02 1656.26,-440.83 1661.76,-441.8 1667.09,-442.92 1672.23,-444.19 1677.16,-445.61 1681.88,-447.18 1686.37,-448.9 1690.62,-450.75 1694.62,-452.74 1698.35,-454.85 1701.81,-457.08 1704.99,-459.43 1707.87,-461.88 1710.45,-464.42 1712.73,-467.05 1714.69,-469.75 1716.34,-472.52 1717.66,-475.34 1718.65,-478.21 1719.32,-481.1 1719.65,-484.01 1719.65,-486.93 1719.32,-489.84"/>
<text xml:space="preserve" text-anchor="middle" x="1598.37" y="-480.02" font-family="sans-serif" font-size="16.00">GestionTrabajos</text>
</g>
<!-- SiniestrosOperacionB2B2C&#45;&gt;GestionTrabajos -->
<g id="edge3" class="edge">
<title>SiniestrosOperacionB2B2C&#45;&gt;GestionTrabajos</title>
<path fill="none" stroke="black" stroke-width="2" d="M1288.25,-596.12C1342.72,-577.94 1409.1,-555.46 1468.37,-534.52 1484.82,-528.7 1502.38,-522.33 1519.1,-516.18"/>
<text xml:space="preserve" text-anchor="middle" x="1454.32" y="-555.37" font-family="sans-serif" font-size="12.00">Shared Kernel</text>
</g>
<!-- GestionTrabajos&#45;&gt;PagosLiquidaciones -->
<g id="edge7" class="edge">
<title>GestionTrabajos&#45;&gt;PagosLiquidaciones</title>
<path fill="none" stroke="black" stroke-width="2" d="M1522.94,-453.44C1505.27,-447.06 1486.35,-440.92 1468.37,-436.42 1411.25,-422.13 1395.32,-427.36 1337.12,-418.42 1252.57,-405.44 1230.73,-405.39 1147.37,-386.17 1129.92,-382.15 1111.59,-377.36 1093.74,-372.38"/>
<text xml:space="preserve" text-anchor="middle" x="1371.25" y="-407.02" font-family="sans-serif" font-size="12.00">Partnership</text>
</g>
<!-- OrquestacionWorkflows -->
<g id="node6" class="node">
<title>OrquestacionWorkflows</title>
<polygon fill="none" stroke="black" stroke-width="2" points="1845.24,-294.53 1855.53,-295.37 1865.63,-296.32 1875.47,-297.38 1885.04,-298.54 1894.28,-299.81 1903.16,-301.17 1911.65,-302.62 1919.71,-304.16 1927.32,-305.78 1934.43,-307.48 1941.04,-309.26 1947.11,-311.1 1952.62,-313.01 1957.57,-314.97 1961.93,-316.98 1965.7,-319.04 1968.86,-321.15 1971.42,-323.28 1973.37,-325.45 1974.71,-327.64 1975.46,-329.85 1975.61,-332.08 1975.18,-334.31 1974.18,-336.55 1972.63,-338.78 1970.54,-341.01 1967.93,-343.22 1964.83,-345.41 1961.26,-347.58 1957.24,-349.72 1952.8,-351.82 1947.96,-353.89 1942.76,-355.91 1937.21,-357.89 1931.36,-359.81 1925.21,-361.67 1918.82,-363.48 1912.19,-365.21 1905.36,-366.87 1898.35,-368.46 1891.19,-369.97 1883.9,-371.4 1876.51,-372.74 1869.04,-373.99 1861.5,-375.14 1853.92,-376.2 1846.32,-377.16 1838.71,-378.02 1831.1,-378.77 1823.51,-379.41 1815.96,-379.94 1808.45,-380.36 1800.98,-380.67 1793.59,-380.86 1786.25,-380.93 1779,-380.88 1771.82,-380.72 1764.73,-380.44 1757.74,-380.04 1750.84,-379.52 1744.04,-378.88 1737.34,-378.12 1730.75,-377.25 1724.28,-376.26 1717.92,-375.17 1711.69,-373.96 1705.59,-372.64 1699.62,-371.22 1693.81,-369.7 1688.14,-368.08 1682.64,-366.37 1677.31,-364.57 1672.17,-362.69 1667.22,-360.73 1662.49,-358.69 1657.98,-356.59 1653.71,-354.42 1649.7,-352.2 1645.97,-349.93 1642.53,-347.62 1639.39,-345.27 1636.59,-342.89 1634.13,-340.49 1632.04,-338.08 1630.34,-335.66 1629.03,-333.24 1628.15,-330.83 1627.7,-328.43 1627.7,-326.06 1628.17,-323.72 1629.12,-321.41 1630.56,-319.15 1632.51,-316.94 1634.96,-314.79 1637.93,-312.7 1641.42,-310.68 1645.44,-308.74 1649.97,-306.89 1655.01,-305.12 1660.57,-303.45 1666.63,-301.88 1673.17,-300.41 1680.19,-299.05 1687.66,-297.8 1695.57,-296.66 1703.89,-295.65 1712.6,-294.75 1721.66,-293.98 1731.05,-293.33 1740.74,-292.81 1750.68,-292.42 1760.85,-292.15 1771.19,-292.01 1781.68,-292 1792.27,-292.11 1802.92,-292.35 1813.59,-292.71 1824.23,-293.2 1834.79,-293.81 1845.24,-294.53"/>
<text xml:space="preserve" text-anchor="middle" x="1795.37" y="-331.42" font-family="sans-serif" font-size="16.00">OrquestacionWorkflows</text>
</g>
<!-- GestionTrabajos&#45;&gt;OrquestacionWorkflows -->
<g id="edge5" class="edge">
<title>GestionTrabajos&#45;&gt;OrquestacionWorkflows</title>
<path fill="none" stroke="black" stroke-width="2" d="M1652.74,-440.01C1667.61,-428.15 1683.85,-415.5 1699.12,-404.17 1710.7,-395.59 1723.25,-386.67 1735.36,-378.26"/>
<text xml:space="preserve" text-anchor="middle" x="1733.25" y="-407.02" font-family="sans-serif" font-size="12.00">Partnership</text>
</g>
<!-- EjecucionEvidenciasSeguimiento -->
<g id="node7" class="node">
<title>EjecucionEvidenciasSeguimiento</title>
<polygon fill="none" stroke="black" stroke-width="2" points="1683.51,-160.48 1692.74,-162.7 1701.44,-164.98 1709.58,-167.32 1717.12,-169.7 1724.04,-172.12 1730.3,-174.57 1735.87,-177.03 1740.72,-179.51 1744.85,-181.99 1748.22,-184.47 1750.83,-186.92 1752.65,-189.36 1753.7,-191.77 1753.95,-194.14 1753.41,-196.48 1752.08,-198.76 1749.97,-200.99 1747.09,-203.15 1743.45,-205.26 1739.07,-207.3 1733.98,-209.26 1728.18,-211.15 1721.71,-212.96 1714.6,-214.69 1706.88,-216.33 1698.59,-217.89 1689.75,-219.36 1680.42,-220.74 1670.62,-222.04 1660.4,-223.24 1649.8,-224.35 1638.87,-225.38 1627.64,-226.31 1616.16,-227.15 1604.48,-227.9 1592.63,-228.56 1580.67,-229.13 1568.63,-229.61 1556.55,-230 1544.47,-230.3 1532.44,-230.51 1520.49,-230.64 1508.66,-230.67 1496.98,-230.62 1485.48,-230.48 1474.19,-230.26 1463.14,-229.94 1452.35,-229.54 1441.86,-229.05 1431.68,-228.47 1421.83,-227.81 1412.33,-227.06 1403.19,-226.22 1394.43,-225.29 1386.06,-224.27 1378.09,-223.16 1370.53,-221.97 1363.39,-220.69 1356.66,-219.33 1350.36,-217.87 1344.49,-216.34 1339.05,-214.72 1334.04,-213.02 1329.47,-211.24 1325.33,-209.39 1321.62,-207.46 1318.34,-205.46 1315.5,-203.39 1313.09,-201.26 1311.11,-199.07 1309.57,-196.82 1308.45,-194.53 1307.77,-192.19 1307.52,-189.82 1307.7,-187.42 1308.31,-184.99 1309.36,-182.55 1310.85,-180.09 1312.77,-177.64 1315.13,-175.19 1317.94,-172.76 1321.19,-170.36 1324.88,-167.99 1329.02,-165.65 1333.6,-163.37 1338.64,-161.15 1344.12,-159 1350.04,-156.92 1356.41,-154.93 1363.22,-153.04 1370.46,-151.24 1378.14,-149.56 1386.23,-147.99 1394.74,-146.55 1403.65,-145.23 1412.95,-144.06 1422.62,-143.02 1432.64,-142.13 1443,-141.39 1453.68,-140.81 1464.65,-140.38 1475.89,-140.11 1487.37,-140 1499.05,-140.05 1510.91,-140.26 1522.91,-140.63 1535.02,-141.16 1547.2,-141.85 1559.41,-142.69 1571.6,-143.67 1583.75,-144.8 1595.8,-146.07 1607.71,-147.48 1619.44,-149.01 1630.94,-150.66 1642.17,-152.43 1653.09,-154.31 1663.65,-156.28 1673.8,-158.34 1683.51,-160.48"/>
<text xml:space="preserve" text-anchor="middle" x="1514.37" y="-183.21" font-family="sans-serif" font-size="16.00">EjecucionEvidenciasSeguimiento</text>
</g>
<!-- GestionTrabajos&#45;&gt;EjecucionEvidenciasSeguimiento -->
<g id="edge6" class="edge">
<title>GestionTrabajos&#45;&gt;EjecucionEvidenciasSeguimiento</title>
<path fill="none" stroke="black" stroke-width="2" d="M1558.77,-444.35C1544.88,-427.72 1530.84,-407.38 1523.12,-386.17 1504.56,-335.14 1505.68,-271.7 1509.19,-230.94"/>
<text xml:space="preserve" text-anchor="middle" x="1564.75" y="-332.6" font-family="sans-serif" font-size="12.00">Shared Kernel</text>
</g>
<!-- DiagnosticoAdmision -->
<g id="node9" class="node">
<title>DiagnosticoAdmision</title>
<polygon fill="none" stroke="black" stroke-width="2" points="1448.28,-315.09 1453.21,-317.6 1457.76,-320.15 1461.89,-322.74 1465.59,-325.35 1468.85,-327.98 1471.64,-330.61 1473.96,-333.23 1475.79,-335.85 1477.12,-338.43 1477.95,-340.99 1478.27,-343.5 1478.08,-345.97 1477.37,-348.38 1476.14,-350.72 1474.41,-353 1472.17,-355.2 1469.44,-357.32 1466.22,-359.35 1462.52,-361.3 1458.37,-363.15 1453.77,-364.9 1448.74,-366.56 1443.3,-368.11 1437.48,-369.56 1431.3,-370.91 1424.77,-372.15 1417.94,-373.29 1410.81,-374.32 1403.43,-375.25 1395.81,-376.08 1387.99,-376.8 1380,-377.42 1371.86,-377.94 1363.61,-378.36 1355.27,-378.69 1346.87,-378.92 1338.44,-379.06 1330.02,-379.11 1321.62,-379.07 1313.28,-378.94 1305.02,-378.72 1296.87,-378.43 1288.85,-378.04 1280.98,-377.58 1273.28,-377.04 1265.78,-376.42 1258.5,-375.72 1251.44,-374.94 1244.63,-374.09 1238.09,-373.16 1231.82,-372.16 1225.83,-371.09 1220.15,-369.93 1214.77,-368.71 1209.71,-367.41 1204.97,-366.04 1200.56,-364.6 1196.48,-363.09 1192.73,-361.51 1189.33,-359.86 1186.26,-358.14 1183.53,-356.35 1181.14,-354.5 1179.09,-352.59 1177.38,-350.61 1176.01,-348.58 1174.97,-346.5 1174.26,-344.36 1173.88,-342.18 1173.83,-339.95 1174.1,-337.69 1174.69,-335.39 1175.6,-333.06 1176.83,-330.72 1178.36,-328.36 1180.2,-325.99 1182.34,-323.62 1184.79,-321.26 1187.53,-318.91 1190.56,-316.58 1193.88,-314.29 1197.49,-312.03 1201.38,-309.83 1205.55,-307.68 1209.99,-305.59 1214.69,-303.58 1219.66,-301.66 1224.89,-299.82 1230.36,-298.09 1236.08,-296.46 1242.03,-294.95 1248.21,-293.56 1254.6,-292.3 1261.2,-291.18 1268,-290.2 1274.97,-289.37 1282.12,-288.69 1289.42,-288.17 1296.86,-287.8 1304.43,-287.6 1312.1,-287.57 1319.85,-287.7 1327.68,-288 1335.55,-288.46 1343.44,-289.09 1351.34,-289.88 1359.21,-290.82 1367.05,-291.93 1374.81,-293.18 1382.48,-294.59 1390.03,-296.13 1397.43,-297.8 1404.66,-299.61 1411.69,-301.53 1418.5,-303.56 1425.05,-305.7 1431.33,-307.93 1437.31,-310.25 1442.97,-312.64 1448.28,-315.09"/>
<text xml:space="preserve" text-anchor="middle" x="1317.37" y="-331.42" font-family="sans-serif" font-size="16.00">DiagnosticoAdmision</text>
</g>
<!-- GestionTrabajos&#45;&gt;DiagnosticoAdmision -->
<g id="edge8" class="edge">
<title>GestionTrabajos&#45;&gt;DiagnosticoAdmision</title>
<path fill="none" stroke="black" stroke-width="2" d="M1515.47,-455.92C1488.3,-445.42 1458.36,-432.59 1432.12,-418.42 1410.81,-406.91 1388.73,-392.18 1369.7,-378.47"/>
<text xml:space="preserve" text-anchor="middle" x="1466.25" y="-407.02" font-family="sans-serif" font-size="12.00">Partnership</text>
</g>
<!-- OrquestacionWorkflows&#45;&gt;EjecucionEvidenciasSeguimiento -->
<g id="edge9" class="edge">
<title>OrquestacionWorkflows&#45;&gt;EjecucionEvidenciasSeguimiento</title>
<path fill="none" stroke="black" stroke-width="2" d="M1715.23,-294.17C1675.97,-273.74 1628.95,-249.28 1590.28,-229.15"/>
<text xml:space="preserve" text-anchor="middle" x="1704.92" y="-258.17" font-family="sans-serif" font-size="12.00">Shared Kernel</text>
</g>
<!-- CalidadGarantiasDisputas -->
<g id="node8" class="node">
<title>CalidadGarantiasDisputas</title>
<polygon fill="none" stroke="black" stroke-width="2" points="141.31,-87.21 130.16,-86.38 119.22,-85.42 108.55,-84.37 98.18,-83.2 88.16,-81.94 78.53,-80.58 69.33,-79.13 60.59,-77.58 52.35,-75.96 44.63,-74.26 37.47,-72.49 30.89,-70.64 24.92,-68.74 19.55,-66.78 14.83,-64.76 10.75,-62.7 7.32,-60.6 4.54,-58.46 2.43,-56.29 0.97,-54.1 0.16,-51.89 0,-49.67 0.47,-47.43 1.55,-45.2 3.23,-42.96 5.5,-40.74 8.32,-38.53 11.68,-36.34 15.55,-34.17 19.91,-32.03 24.73,-29.92 29.97,-27.85 35.61,-25.83 41.62,-23.86 47.97,-21.93 54.63,-20.07 61.56,-18.27 68.75,-16.53 76.15,-14.87 83.75,-13.28 91.51,-11.77 99.41,-10.35 107.42,-9.01 115.52,-7.76 123.69,-6.6 131.91,-5.54 140.15,-4.58 148.4,-3.73 156.64,-2.98 164.87,-2.33 173.06,-1.8 181.2,-1.38 189.29,-1.08 197.31,-0.89 205.26,-0.82 213.12,-0.86 220.9,-1.02 228.58,-1.31 236.17,-1.71 243.65,-2.23 251.02,-2.87 258.28,-3.62 265.42,-4.49 272.44,-5.48 279.33,-6.58 286.08,-7.79 292.7,-9.1 299.16,-10.52 305.47,-12.04 311.61,-13.66 317.58,-15.37 323.35,-17.17 328.93,-19.06 334.29,-21.02 339.42,-23.05 344.3,-25.16 348.93,-27.32 353.28,-29.54 357.32,-31.81 361.05,-34.13 364.45,-36.48 367.49,-38.85 370.15,-41.25 372.42,-43.66 374.27,-46.08 375.68,-48.5 376.64,-50.92 377.13,-53.31 377.13,-55.69 376.62,-58.03 375.59,-60.33 374.02,-62.6 371.91,-64.81 369.25,-66.96 366.03,-69.05 362.25,-71.06 357.9,-73 352.99,-74.86 347.52,-76.62 341.5,-78.29 334.93,-79.87 327.84,-81.34 320.23,-82.7 312.13,-83.95 303.56,-85.08 294.54,-86.1 285.1,-86.99 275.27,-87.77 265.09,-88.41 254.6,-88.94 243.82,-89.33 232.8,-89.6 221.58,-89.74 210.21,-89.75 198.73,-89.63 187.19,-89.39 175.63,-89.03 164.1,-88.54 152.64,-87.94 141.31,-87.21"/>
<text xml:space="preserve" text-anchor="middle" x="195.37" y="-39.42" font-family="sans-serif" font-size="16.00">CalidadGarantiasDisputas</text>
</g>
<!-- EjecucionEvidenciasSeguimiento&#45;&gt;CalidadGarantiasDisputas -->
<g id="edge10" class="edge">
<title>EjecucionEvidenciasSeguimiento&#45;&gt;CalidadGarantiasDisputas</title>
<path fill="none" stroke="black" stroke-width="2" d="M1325.39,-167.34C1070.73,-139.97 620.77,-91.6 372.4,-64.9"/>
<text xml:space="preserve" text-anchor="middle" x="928.55" y="-110.6" font-family="sans-serif" font-size="12.00">Partnership</text>
</g>
<!-- FintechWalletCredito -->
<g id="node10" class="node">
<title>FintechWalletCredito</title>
<polygon fill="none" stroke="black" stroke-width="2" points="716.98,-525.18 708.27,-523.92 699.79,-522.55 691.59,-521.09 683.7,-519.54 676.14,-517.9 668.96,-516.18 662.17,-514.39 655.81,-512.52 649.9,-510.6 644.46,-508.62 639.51,-506.59 635.08,-504.51 631.17,-502.4 627.8,-500.25 624.97,-498.08 622.7,-495.88 620.98,-493.67 619.82,-491.45 619.22,-489.23 619.17,-487.01 619.66,-484.79 620.68,-482.59 622.23,-480.4 624.28,-478.23 626.83,-476.09 629.84,-473.98 633.31,-471.91 637.21,-469.88 641.52,-467.88 646.2,-465.94 651.25,-464.05 656.63,-462.21 662.31,-460.43 668.26,-458.72 674.47,-457.07 680.9,-455.49 687.53,-453.98 694.32,-452.54 701.26,-451.19 708.32,-449.92 715.47,-448.73 722.69,-447.63 729.96,-446.61 737.25,-445.7 744.55,-444.87 751.84,-444.15 759.1,-443.52 766.31,-443 773.46,-442.58 780.54,-442.26 787.53,-442.06 794.43,-441.96 801.22,-441.97 807.89,-442.1 814.45,-442.34 820.87,-442.69 827.16,-443.15 833.32,-443.73 839.33,-444.42 845.19,-445.23 850.9,-446.15 856.46,-447.18 861.86,-448.32 867.1,-449.56 872.18,-450.92 877.08,-452.37 881.82,-453.93 886.38,-455.58 890.76,-457.33 894.95,-459.17 898.95,-461.09 902.75,-463.09 906.34,-465.17 909.71,-467.32 912.86,-469.53 915.77,-471.8 918.43,-474.12 920.83,-476.48 922.97,-478.88 924.82,-481.31 926.38,-483.76 927.64,-486.23 928.57,-488.7 929.17,-491.17 929.43,-493.63 929.32,-496.08 928.85,-498.5 928,-500.88 926.76,-503.23 925.12,-505.52 923.08,-507.76 920.61,-509.93 917.73,-512.04 914.43,-514.06 910.7,-515.99 906.55,-517.84 901.97,-519.58 896.98,-521.22 891.57,-522.75 885.76,-524.17 879.56,-525.47 872.98,-526.64 866.03,-527.69 858.74,-528.61 851.12,-529.4 843.19,-530.05 834.99,-530.56 826.53,-530.94 817.84,-531.19 808.96,-531.29 799.92,-531.26 790.75,-531.1 781.48,-530.8 772.15,-530.37 762.79,-529.81 753.45,-529.12 744.16,-528.31 734.96,-527.38 725.89,-526.34 716.98,-525.18"/>
<text xml:space="preserve" text-anchor="middle" x="783.37" y="-480.02" font-family="sans-serif" font-size="16.00">FintechWalletCredito</text>
</g>
<!-- FintechWalletCredito&#45;&gt;PagosLiquidaciones -->
<g id="edge11" class="edge">
<title>FintechWalletCredito&#45;&gt;PagosLiquidaciones</title>
<path fill="none" stroke="black" stroke-width="2" d="M838.28,-444.02C866,-423.6 899.55,-398.88 927.3,-378.44"/>
<text xml:space="preserve" text-anchor="middle" x="922.96" y="-407.02" font-family="sans-serif" font-size="12.00">Partnership</text>
</g>
<!-- GeneradorCotizaciones -->
<g id="node11" class="node">
<title>GeneradorCotizaciones</title>
<polygon fill="none" stroke="black" stroke-width="2" points="1452.21,-604.51 1459.19,-602.31 1466.46,-600.21 1474,-598.21 1481.77,-596.32 1489.76,-594.56 1497.92,-592.92 1506.24,-591.42 1514.67,-590.05 1523.2,-588.84 1531.79,-587.78 1540.43,-586.87 1549.07,-586.12 1557.71,-585.53 1566.3,-585.11 1574.83,-584.86 1583.28,-584.77 1591.63,-584.84 1599.85,-585.08 1607.92,-585.48 1615.83,-586.04 1623.57,-586.75 1631.11,-587.62 1638.44,-588.64 1645.55,-589.79 1652.43,-591.08 1659.06,-592.5 1665.44,-594.05 1671.56,-595.7 1677.4,-597.47 1682.97,-599.33 1688.26,-601.28 1693.25,-603.31 1697.95,-605.42 1702.34,-607.59 1706.43,-609.82 1710.22,-612.09 1713.69,-614.4 1716.84,-616.74 1719.67,-619.1 1722.18,-621.48 1724.36,-623.86 1726.21,-626.24 1727.73,-628.61 1728.91,-630.96 1729.75,-633.29 1730.24,-635.59 1730.39,-637.85 1730.19,-640.08 1729.64,-642.26 1728.74,-644.39 1727.47,-646.47 1725.84,-648.5 1723.86,-650.46 1721.5,-652.36 1718.78,-654.2 1715.7,-655.97 1712.25,-657.68 1708.44,-659.31 1704.26,-660.87 1699.72,-662.36 1694.83,-663.78 1689.58,-665.13 1683.99,-666.4 1678.06,-667.59 1671.8,-668.71 1665.22,-669.76 1658.33,-670.73 1651.15,-671.62 1643.68,-672.44 1635.95,-673.18 1627.98,-673.84 1619.78,-674.42 1611.37,-674.93 1602.77,-675.35 1594.02,-675.69 1585.12,-675.94 1576.12,-676.12 1567.04,-676.2 1557.9,-676.2 1548.73,-676.11 1539.57,-675.92 1530.45,-675.65 1521.39,-675.28 1512.44,-674.81 1503.61,-674.25 1494.95,-673.59 1486.49,-672.83 1478.25,-671.96 1470.28,-671 1462.59,-669.93 1455.22,-668.75 1448.2,-667.48 1441.56,-666.1 1435.32,-664.62 1429.5,-663.04 1424.14,-661.36 1419.24,-659.58 1414.84,-657.71 1410.94,-655.74 1407.57,-653.69 1404.73,-651.56 1402.43,-649.35 1400.69,-647.06 1399.51,-644.71 1398.9,-642.3 1398.84,-639.83 1399.35,-637.32 1400.42,-634.77 1402.03,-632.19 1404.19,-629.59 1406.88,-626.97 1410.09,-624.36 1413.81,-621.75 1418,-619.16 1422.67,-616.59 1427.78,-614.06 1433.31,-611.58 1439.24,-609.15 1445.55,-606.79 1452.21,-604.51"/>
<text xml:space="preserve" text-anchor="middle" x="1574.37" y="-628.58" font-family="sans-serif" font-size="16.00">GeneradorCotizaciones</text>
</g>
<!-- GeneradorCotizaciones&#45;&gt;GestionTrabajos -->
<g id="edge12" class="edge">
<title>GeneradorCotizaciones&#45;&gt;GestionTrabajos</title>
<path fill="none" stroke="black" stroke-width="2" d="M1582.3,-584.64C1585.11,-567.46 1588.26,-548.21 1591.02,-531.34"/>
<text xml:space="preserve" text-anchor="middle" x="1621.22" y="-555.37" font-family="sans-serif" font-size="12.00">Partnership</text>
</g>
<!-- MarketplaceAsignacion -->
<g id="node12" class="node">
<title>MarketplaceAsignacion</title>
<polygon fill="none" stroke="black" stroke-width="2" points="610.48,-817.54 601.43,-816.01 592.68,-814.39 584.27,-812.68 576.22,-810.88 568.58,-809.02 561.37,-807.08 554.63,-805.09 548.38,-803.03 542.65,-800.94 537.46,-798.79 532.83,-796.62 528.77,-794.42 525.3,-792.19 522.43,-789.95 520.17,-787.7 518.53,-785.44 517.5,-783.19 517.08,-780.95 517.27,-778.72 518.06,-776.51 519.45,-774.32 521.42,-772.16 523.95,-770.03 527.03,-767.94 530.63,-765.9 534.74,-763.89 539.33,-761.94 544.38,-760.04 549.85,-758.19 555.73,-756.41 561.98,-754.68 568.57,-753.02 575.47,-751.43 582.64,-749.91 590.07,-748.47 597.71,-747.1 605.55,-745.8 613.53,-744.59 621.65,-743.46 629.86,-742.42 638.14,-741.46 646.46,-740.59 654.8,-739.81 663.14,-739.13 671.45,-738.54 679.7,-738.04 687.88,-737.65 695.98,-737.35 703.97,-737.16 711.83,-737.07 719.57,-737.09 727.15,-737.21 734.58,-737.43 741.84,-737.77 748.92,-738.21 755.82,-738.76 762.52,-739.42 769.04,-740.19 775.35,-741.06 781.46,-742.05 787.35,-743.14 793.04,-744.34 798.52,-745.64 803.77,-747.05 808.81,-748.55 813.63,-750.15 818.21,-751.85 822.57,-753.64 826.69,-755.52 830.58,-757.47 834.21,-759.51 837.6,-761.62 840.73,-763.8 843.6,-766.04 846.2,-768.34 848.51,-770.69 850.54,-773.08 852.27,-775.5 853.68,-777.96 854.78,-780.43 855.55,-782.92 855.97,-785.41 856.05,-787.9 855.76,-790.37 855.09,-792.83 854.05,-795.26 852.6,-797.65 850.76,-800 848.5,-802.29 845.83,-804.52 842.73,-806.68 839.2,-808.77 835.24,-810.76 830.85,-812.67 826.03,-814.48 820.78,-816.18 815.1,-817.78 809.01,-819.25 802.5,-820.6 795.6,-821.83 788.31,-822.93 780.66,-823.89 772.65,-824.71 764.32,-825.4 755.68,-825.94 746.75,-826.34 737.57,-826.6 728.17,-826.71 718.57,-826.68 708.81,-826.51 698.93,-826.19 688.95,-825.74 678.92,-825.15 668.87,-824.43 658.85,-823.58 648.89,-822.6 639.03,-821.51 629.32,-820.29 619.79,-818.97 610.48,-817.54"/>
<text xml:space="preserve" text-anchor="middle" x="698.37" y="-774.68" font-family="sans-serif" font-size="16.00">MarketplaceAsignacion</text>
</g>
<!-- MarketplaceAsignacion&#45;&gt;AcreditacionCumplimiento -->
<g id="edge16" class="edge">
<title>MarketplaceAsignacion&#45;&gt;AcreditacionCumplimiento</title>
<path fill="none" stroke="black" stroke-width="2" d="M606.03,-745.29C573.26,-730.02 537.91,-709.45 511.12,-683.3 468.15,-641.34 438.16,-578.34 421.14,-534.97"/>
<text xml:space="preserve" text-anchor="middle" x="545.25" y="-629.76" font-family="sans-serif" font-size="12.00">Partnership</text>
</g>
<!-- MarketplaceAsignacion&#45;&gt;OrquestacionWorkflows -->
<g id="edge15" class="edge">
<title>MarketplaceAsignacion&#45;&gt;OrquestacionWorkflows</title>
<path fill="none" stroke="black" stroke-width="2" d="M852.85,-775.83C1131.69,-768.34 1696.21,-745.6 1759.37,-683.3 1840.18,-603.59 1821.61,-454.32 1806.12,-380.9"/>
<text xml:space="preserve" text-anchor="middle" x="1850.72" y="-555.37" font-family="sans-serif" font-size="12.00">Partnership</text>
</g>
<!-- MarketplaceAsignacion&#45;&gt;CalidadGarantiasDisputas -->
<g id="edge13" class="edge">
<title>MarketplaceAsignacion&#45;&gt;CalidadGarantiasDisputas</title>
<path fill="none" stroke="black" stroke-width="2" d="M532.02,-764.85C380.21,-747.07 179.37,-709.49 179.37,-635.03 179.37,-635.03 179.37,-635.03 179.37,-187.66 179.37,-154.71 183.69,-117.73 187.84,-89.8"/>
<text xml:space="preserve" text-anchor="middle" x="213.5" y="-407.02" font-family="sans-serif" font-size="12.00">Partnership</text>
</g>
<!-- MarketplaceAsignacion&#45;&gt;GeneradorCotizaciones -->
<g id="edge14" class="edge">
<title>MarketplaceAsignacion&#45;&gt;GeneradorCotizaciones</title>
<path fill="none" stroke="black" stroke-width="2" d="M841.25,-763.63C980.14,-747.5 1196.72,-719.53 1382.37,-683.3 1404.47,-678.99 1427.83,-673.72 1450.35,-668.27"/>
<text xml:space="preserve" text-anchor="middle" x="1305.32" y="-704.15" font-family="sans-serif" font-size="12.00">Partnership</text>
</g>
<!-- Proveedores -->
<g id="node13" class="node">
<title>Proveedores</title>
<polygon fill="none" stroke="black" stroke-width="2" points="636.17,-599.19 641.25,-597.36 646.46,-595.63 651.8,-594.02 657.23,-592.53 662.74,-591.16 668.32,-589.94 673.92,-588.85 679.55,-587.91 685.18,-587.11 690.78,-586.47 696.35,-585.98 701.87,-585.65 707.31,-585.48 712.66,-585.47 717.92,-585.62 723.05,-585.93 728.06,-586.4 732.93,-587.02 737.65,-587.8 742.21,-588.72 746.6,-589.79 750.81,-591 754.84,-592.35 758.68,-593.82 762.33,-595.42 765.78,-597.13 769.03,-598.95 772.07,-600.87 774.91,-602.88 777.54,-604.98 779.97,-607.15 782.19,-609.39 784.2,-611.69 786,-614.03 787.6,-616.42 788.99,-618.84 790.18,-621.27 791.17,-623.73 791.95,-626.19 792.54,-628.65 792.92,-631.09 793.11,-633.52 793.1,-635.93 792.89,-638.3 792.48,-640.63 791.88,-642.92 791.08,-645.16 790.09,-647.34 788.9,-649.46 787.52,-651.52 785.94,-653.51 784.17,-655.43 782.2,-657.27 780.03,-659.03 777.67,-660.71 775.11,-662.31 772.36,-663.82 769.42,-665.25 766.29,-666.59 762.96,-667.85 759.45,-669.01 755.76,-670.09 751.88,-671.08 747.83,-671.98 743.61,-672.78 739.23,-673.5 734.69,-674.13 730,-674.68 725.18,-675.13 720.22,-675.49 715.15,-675.77 709.97,-675.95 704.69,-676.05 699.34,-676.06 693.92,-675.98 688.45,-675.81 682.94,-675.56 677.42,-675.21 671.91,-674.78 666.41,-674.26 660.95,-673.65 655.55,-672.94 650.22,-672.15 645,-671.27 639.89,-670.3 634.92,-669.24 630.11,-668.09 625.48,-666.85 621.04,-665.52 616.81,-664.11 612.83,-662.6 609.09,-661.02 605.61,-659.34 602.43,-657.59 599.53,-655.76 596.95,-653.85 594.69,-651.87 592.77,-649.82 591.18,-647.7 589.95,-645.52 589.07,-643.29 588.55,-641 588.4,-638.67 588.61,-636.3 589.18,-633.89 590.11,-631.46 591.4,-629.01 593.05,-626.55 595.03,-624.08 597.36,-621.62 600,-619.18 602.97,-616.75 606.23,-614.36 609.78,-612 613.6,-609.7 617.68,-607.45 621.99,-605.26 626.53,-603.15 631.26,-601.13 636.17,-599.19"/>
<text xml:space="preserve" text-anchor="middle" x="698.37" y="-628.58" font-family="sans-serif" font-size="16.00">Proveedores</text>
</g>
<!-- MarketplaceAsignacion&#45;&gt;Proveedores -->
<g id="edge17" class="edge">
<title>MarketplaceAsignacion&#45;&gt;Proveedores</title>
<path fill="none" stroke="black" stroke-width="2" d="M698.37,-737.06C698.37,-717.96 698.37,-695.43 698.37,-676.4"/>
<text xml:space="preserve" text-anchor="middle" x="740" y="-704.15" font-family="sans-serif" font-size="12.00">Shared Kernel</text>
</g>
<!-- Proveedores&#45;&gt;AcreditacionCumplimiento -->
<g id="edge19" class="edge">
<title>Proveedores&#45;&gt;AcreditacionCumplimiento</title>
<path fill="none" stroke="black" stroke-width="2" d="M632.76,-600.32C590.87,-579.44 536.12,-552.14 490.72,-529.51"/>
<text xml:space="preserve" text-anchor="middle" x="601.81" y="-555.37" font-family="sans-serif" font-size="12.00">Shared Kernel</text>
</g>
<!-- Proveedores&#45;&gt;FintechWalletCredito -->
<g id="edge18" class="edge">
<title>Proveedores&#45;&gt;FintechWalletCredito</title>
<path fill="none" stroke="black" stroke-width="2" d="M725.74,-585.85C736.22,-567.78 748.11,-547.26 758.37,-529.59"/>
<text xml:space="preserve" text-anchor="middle" x="777.55" y="-555.37" font-family="sans-serif" font-size="12.00">Partnership</text>
</g>
</g>
</svg>
